<svg xmlns="http://www.w3.org/2000/svg" width="79.601" height="28"><path data-name="Path 4569" d="M50.706 27.813H34.972c5.7-7.307 11.371-14.466 16.927-21.587 1.64.075 2.386 1.193 3.206 2.088a1.216 1.216 0 01.037 1.081c-.746 1.193-.522 2.61-1.044 3.84-.485 1.156-.447 2.535-.82 3.766-.969 3.206-1.491 6.525-2.573 9.731a5.209 5.209 0 00.001 1.081z" fill="#f89829"/><path data-name="Path 4572" d="M0 2.573h17.449v2.2H2.647v8.575h13.087c.671.037.969.336 1.007.969.112 1.3-.149 1.64-1.491 1.64H2.759c-.037.037-.112.075-.149.112a.283.283 0 00-.075.149v9.023h13.982a1.359 1.359 0 011.193 2.125 1.168 1.168 0 01-.895.447c-1.007.075-1.976.037-2.983.037-4.027 0-8.053-.037-12.117 0C.3 27.926 0 27.814 0 25.987c.037-7.755 0-15.514 0-23.414z" fill="#fff"/><path data-name="Path 4575" d="M58.908 2.61h3.244c1.007 1.529 5.928 9.284 6.9 10.029 2.312-3.356 4.66-6.748 6.935-10.029h2.983c-2.871 4.138-5.593 8.091-8.426 12.154q4.418 6.32 9.06 12.975a19.911 19.911 0 01-3.02.186c-1.23-1.752-2.535-3.542-3.8-5.369l-3.691-5.481c-1.118.3-1.454 1.342-1.9 2.088-1.678 2.834-3.766 5.369-5.593 8.128a5.574 5.574 0 01-.447.559h-2.692a6.531 6.531 0 01.6-1.342c2.088-2.684 3.989-5.518 5.854-8.389.6-.932 1.379-1.752 1.939-2.722a1.076 1.076 0 00-.075-1.417 136.644 136.644 0 00-4.59-6.67 56.023 56.023 0 00-3.281-4.7z" fill="#fff"/><path data-name="Path 4576" d="M51.75 28c.186-.969.3-1.715.485-2.423.037-.149.336-.224.522-.336 2.983-1.379 4.325-3.877 5.108-6.935a14.168 14.168 0 00.224-5.443 9.448 9.448 0 00-2.2-5.406 7.867 7.867 0 00-4.027-2.834 4.883 4.883 0 00-1.007-.224c-1.118-.037-2.237-.075-3.356 0a6.784 6.784 0 00-5.332 2.983 13.306 13.306 0 00-1.491 2.535 8.221 8.221 0 00-.783 2.834v4.474a1.25 1.25 0 000 .373c.112.447.447.969.336 1.3a5.691 5.691 0 01-1.156 1.379l-.858.858c-.41-1.491-1.156-2.834-.932-4.4a3.245 3.245 0 01-.373-2.274c.075-.82.41-1.6.41-2.461a12.548 12.548 0 01.6-2.162 7.262 7.262 0 01.858-2.088 11.39 11.39 0 017.718-5.742 10.013 10.013 0 013.766-.261 14.927 14.927 0 014.437 1.379 11.873 11.873 0 015.369 6.525c1.007 2.647.858 5.369.671 8.091a12.686 12.686 0 01-1.454 4.586 10.187 10.187 0 01-3.244 3.654A9.541 9.541 0 0151.75 28z" fill="#fff"/><path data-name="Path 4577" d="M17.859 2.573h2.722c1.491 3.542 2.722 7.233 4.064 10.924s2.647 7.345 4.027 11.185c1.044-2.908 2.051-5.7 3.057-8.5.746-1.976 1.566-3.952 2.162-6 .708-2.312 1.827-4.474 2.312-6.86a.823.823 0 01.856-.749h2.013c.336.895-.261 1.566-.485 2.237-.708 2.162-1.6 4.325-2.386 6.45-.671 1.827-1.379 3.654-2.051 5.481-.708 1.864-1.342 3.766-2.088 5.63a41.641 41.641 0 01-1.827 4.66c-.336.671-.671.932-1.342.858a3.9 3.9 0 00-.932 0c-.671.075-.932-.3-1.119-.895a86.13 86.13 0 00-1.678-4.325c-.559-1.379-.895-2.834-1.529-4.213-.82-1.752-1.342-3.654-2.013-5.518-.485-1.3-.969-2.573-1.454-3.877-.634-1.715-1.268-3.43-1.9-5.182-.109-.337-.223-.747-.409-1.306z" fill="#fff"/><path data-name="Path 4580" d="M57.454 0l-.895 3.244c-.485-.3-.969-.6-1.529-.969A10.786 10.786 0 0157.454 0z" fill="#f89829"/></svg>