<svg width="154" height="33" viewBox="0 0 154 33" fill="none" xmlns="http://www.w3.org/2000/svg">
<path fill-rule="evenodd" clip-rule="evenodd" d="M8.4463 32.3159H153.786L145.874 0.315918H0.552368L8.4463 32.3159ZM121.695 21.7905C120.701 21.7905 119.749 21.5518 118.917 21.0853C118.086 20.6187 117.465 19.9251 116.979 19.1036C116.492 18.2719 116.248 17.3338 116.248 16.2891C116.248 15.2546 116.492 14.3266 116.979 13.5051C117.465 12.6734 118.08 11.9794 118.912 11.5128C119.744 11.0463 120.674 10.7967 121.668 10.7967C122.673 10.7967 123.612 11.0913 124.433 11.5578C125.265 12.0243 125.919 12.6734 126.396 13.5051C126.882 14.3266 127.085 15.2546 127.085 16.2891C127.085 17.3338 126.882 18.2719 126.396 19.1036C125.919 19.9251 125.251 20.6241 124.42 21.0906C123.588 21.5572 122.689 21.7905 121.695 21.7905ZM121.695 19.9654C122.334 19.9654 122.931 19.7864 123.418 19.5024C123.905 19.2083 124.35 18.7694 124.624 18.2318C124.898 17.6943 125.076 16.9991 125.076 16.2891C125.076 15.5792 124.882 14.8936 124.608 14.3663C124.334 13.8287 123.91 13.3689 123.424 13.0849C122.937 12.8009 122.307 12.6488 121.668 12.6488C121.029 12.6488 120.4 12.8009 119.903 13.0849C119.416 13.3689 118.96 13.8126 118.686 14.3501C118.412 14.8775 118.196 15.5792 118.196 16.2891C118.196 16.9991 118.428 17.6889 118.702 18.2265C118.976 18.764 119.437 19.2083 119.924 19.5024C120.421 19.7864 121.056 19.9654 121.695 19.9654ZM70.2989 16.8805L74.398 21.629L76.8941 21.5967L72.2156 16.2129L76.3503 11.0101H74.0353L70.2989 15.7122V11.0101H68.4039V21.629H70.2989V16.8805ZM134.428 16.8805L138.527 21.629L141.023 21.5967L136.345 16.2129L140.48 11.0101H138.165L134.428 15.7122V11.0101H132.533V21.629H134.428V16.8805ZM103.238 21.0853C104.069 21.5518 105.021 21.7905 106.015 21.7905C107.009 21.7905 107.908 21.5572 108.74 21.0906C109.572 20.6241 110.239 19.9251 110.716 19.1036C111.203 18.2719 111.405 17.3338 111.405 16.2891C111.405 15.2546 111.203 14.3266 110.716 13.5051C110.239 12.6734 109.585 12.0243 108.753 11.5578C107.932 11.0913 106.993 10.7967 105.989 10.7967C104.995 10.7967 104.064 11.0463 103.232 11.5128C102.401 11.9794 101.786 12.6734 101.299 13.5051C100.812 14.3266 100.569 15.2546 100.569 16.2891C100.569 17.3338 100.812 18.2719 101.299 19.1036C101.786 19.9251 102.406 20.6187 103.238 21.0853ZM107.738 19.5024C107.252 19.7864 106.654 19.9654 106.015 19.9654C105.376 19.9654 104.741 19.7864 104.244 19.5024C103.758 19.2083 103.296 18.764 103.022 18.2265C102.748 17.6889 102.516 16.9991 102.516 16.2891C102.516 15.5792 102.732 14.8775 103.006 14.3501C103.28 13.8126 103.736 13.3689 104.223 13.0849C104.72 12.8009 105.35 12.6488 105.989 12.6488C106.628 12.6488 107.257 12.8009 107.744 13.0849C108.231 13.3689 108.654 13.8287 108.928 14.3663C109.202 14.8936 109.397 15.5792 109.397 16.2891C109.397 16.9991 109.218 17.6943 108.944 18.2318C108.671 18.7694 108.225 19.2083 107.738 19.5024ZM94.0859 16.0251C94.1587 16.0397 94.2277 16.058 94.2934 16.0796C95.3246 16.4193 95.7195 17.668 95.7195 18.7536C95.7195 19.3216 95.4504 19.8354 95.1664 20.2715C94.8926 20.6975 94.686 20.8688 94.114 21.1944L94.0822 21.209C93.5704 21.4454 93.1729 21.629 92.4673 21.629H88.2771V11.0101H92.1702C92.8903 11.0101 93.189 11.1255 93.7062 11.3588C94.2336 11.5921 94.5076 11.9385 94.7713 12.3544C95.0452 12.7702 95.1419 13.2211 95.1419 13.7485C95.1419 13.8612 95.1434 13.9538 95.1446 14.0338C95.1503 14.393 95.152 14.4973 94.9987 15.0163C94.8299 15.3502 94.6295 15.7213 94.0859 16.0251ZM90.1676 15.3622H91.8149C91.9532 15.3622 92.0788 15.3521 92.1953 15.331C92.7962 15.2225 93.2626 14.678 93.2903 14.068C93.2903 13.642 93.2142 13.3612 92.9403 13.1279C92.6665 12.8946 92.4259 12.7292 91.9188 12.7292H90.1676V15.3622ZM92.4029 19.849C92.9201 19.849 93.1171 19.7729 93.4011 19.5295C93.6953 19.2861 93.8631 18.9413 93.8631 18.495C93.8631 18.0386 93.6868 17.6915 93.3826 17.4379C93.0783 17.1742 92.8253 17.0345 92.308 17.0345H90.1676V19.849H92.4029ZM21.2706 16.0796C21.2049 16.058 21.1358 16.0397 21.0631 16.0251C21.6066 15.7213 21.807 15.3502 21.9759 15.0163C22.1291 14.4973 22.1275 14.393 22.1218 14.0338C22.1205 13.9538 22.1191 13.8611 22.1191 13.7485C22.1191 13.2211 22.0224 12.7702 21.7485 12.3544C21.4848 11.9385 21.2108 11.5921 20.6834 11.3588C20.1662 11.1255 19.8675 11.0101 19.1474 11.0101H15.2543V21.629H19.4445C20.1501 21.629 20.5475 21.4454 21.0594 21.209L21.0911 21.1944C21.6632 20.8688 21.8697 20.6975 22.1436 20.2715C22.4276 19.8354 22.6967 19.3216 22.6967 18.7536C22.6967 17.668 22.3017 16.4193 21.2706 16.0796ZM18.7921 15.3622H17.1448V12.7292H18.896C19.4031 12.7292 19.6437 12.8946 19.9175 13.1279C20.1913 13.3612 20.2674 13.642 20.2674 14.068C20.2398 14.678 19.7734 15.2225 19.1725 15.331C19.056 15.3521 18.9303 15.3622 18.7921 15.3622ZM20.3783 19.5295C20.0943 19.7729 19.8973 19.849 19.38 19.849H17.1448V17.0345H19.2852C19.8024 17.0345 20.0555 17.1742 20.3597 17.4379C20.664 17.6915 20.8403 18.0386 20.8403 18.495C20.8403 18.9413 20.6724 19.2861 20.3783 19.5295ZM53.6026 16.3371C53.6372 15.3173 53.7842 14.468 54.2508 13.6691C54.7535 12.8693 55.2885 12.2404 56.0911 11.7648C56.9126 11.3111 57.7928 10.9746 58.807 10.9746C59.9936 10.9746 60.3968 11.043 61.2992 11.4436C61.7664 11.6509 62.6087 12.1147 62.995 12.608L61.7151 13.8326C61.2255 13.4397 60.91 13.2533 60.441 13.0124C60.0145 12.7712 59.5564 12.7713 58.9957 12.7715L58.9576 12.7715C58.3389 12.7715 57.6394 12.9521 57.1203 13.3164C56.6436 13.5925 56.2968 14.0193 56.0229 14.5322C55.7593 15.0451 55.6274 15.6467 55.6274 16.3371C55.6274 17.0177 55.7593 17.6193 56.0229 18.1421C56.2968 18.6549 56.672 19.0544 57.1487 19.3404C57.6394 19.6603 58.4068 19.9758 59.0255 19.9758C59.5566 19.9758 59.7939 19.8983 60.3025 19.7322L60.444 19.6861C60.7772 19.5485 61.6354 19.0666 61.895 18.6967L63.1307 19.8754C62.9773 20.2511 62.2666 20.73 61.547 21.143C60.8864 21.4556 60.1756 21.708 58.807 21.6822C57.4654 21.6392 56.8952 21.3684 56.0737 20.9246C55.2181 20.3802 54.7259 19.7883 54.2492 18.9894C53.7827 18.1905 53.6026 17.353 53.6026 16.3371ZM42.0346 19.0779H46.3617L47.3559 21.6063H49.2901L45.1302 10.9951L43.2548 10.9951L39.1107 21.6063H41.0381L42.0346 19.0779ZM44.1835 13.3747L45.7584 17.4148H42.6334L44.1835 13.3747ZM29.692 19.8668H34.8537L34.1917 21.629H27.8508V11.0101H29.692V19.8668Z" fill="white"/>
</svg>
