<svg xmlns="http://www.w3.org/2000/svg" width="156.575" height="30.86"><path data-name="Path 652" d="M156.535 21.061c-.647.02-1.294.1-1.941.059-.2 0-.451-.235-.588-.412-1.02-1.431-2-2.882-3-4.313-.137-.216-.294-.412-.451-.627a1.828 1.828 0 00-1.176 2.019c.1 1.059.02 2.157.02 3.313h-2.118V8.961h2.157v5.313a2.028 2.028 0 00.2.078c.49-.569 1-1.137 1.49-1.706.9-1.059 1.823-2.117 2.706-3.2a1.151 1.151 0 011.059-.51c.549.039 1.1.02 1.667.02v.588c-.176.059-.412.059-.51.176-1.314 1.529-2.608 3.059-3.941 4.627a601.445 601.445 0 003.961 5.784c.078.118.333.137.51.2a4.041 4.041 0 00-.045.73z" fill="#fff"/><path data-name="Path 653" d="M.196 8.862c.02-.059.02-.1.039-.157 2.823-2 5.627-3.98 8.45-5.98A397.37 397.37 0 0012.509 0q6.382 4.441 12.9 9c-4.235 3.078-8.391 6.1-12.568 9.117-2.255-1.608-4.49-3.176-6.725-4.764a2.951 2.951 0 00-.431-.216 2.448 2.448 0 00-.489-.668c-1.529-1.078-3.078-2.117-4.607-3.2a2.619 2.619 0 01-.393-.407z" fill="#fff"/><path data-name="Path 654" d="M.2 8.862a3.892 3.892 0 00.392.412c1.529 1.078 3.078 2.117 4.607 3.2a2.79 2.79 0 01.49.667v6.421c2.314 1.627 4.627 3.255 6.98 4.9 4.137-3.078 8.2-6.117 12.43-9.254 0 .882.02 1.588 0 2.294-.039 1.274-.137 2.529-.157 3.8a1.078 1.078 0 01-.529.863c-3.686 2.706-7.372 5.431-11.058 8.137a8.255 8.255 0 01-.882.549c-1.274-.941-2.588-1.9-3.9-2.882q-3.858-2.814-7.73-5.618a3.489 3.489 0 00-.588-.333C.176 21.9.1 21.782 0 21.645c0-4.255.02-8.509.02-12.744.058-.019.117-.019.18-.039z" fill="#fff"/><path data-name="Path 655" d="M41.094 21.155c-1.118-3.235-2.215-6.352-3.294-9.489-.039.02-.1.02-.137.039v9.411H35.82V8.979h2.941c1.078 3.078 2.2 6.235 3.372 9.587 1.2-3.353 2.314-6.45 3.451-9.627h2.921v12.157h-2.019v-9.078c-.059-.02-.1-.02-.157-.039a3.51 3.51 0 00-.235.471c-.961 2.725-1.921 5.431-2.882 8.156a.655.655 0 01-.784.529c-.452-.02-.903.02-1.334.02z" fill="#fff"/><path data-name="Path 656" d="M65.112 16.293v4.823h-2.019V8.864c1.784.118 3.608-.176 5.411.2a3.024 3.024 0 012.725 2.961 3.3 3.3 0 01-1.961 3.568 1.567 1.567 0 00-.275.157c.922 1.784 2.176 3.392 3.215 5.254h-2.333c-.784-1.294-1.647-2.627-2.412-4.019a1.113 1.113 0 00-1.235-.686 10.56 10.56 0 01-1.116-.006zm.02-1.745c.725 0 1.353.02 1.961 0a2.658 2.658 0 00.765-.157 1.8 1.8 0 001.274-1.863 1.651 1.651 0 00-1.294-1.706 8.237 8.237 0 00-2.686-.137c-.02 1.294-.02 2.51-.02 3.863z" fill="#fff"/><path data-name="Path 657" d="M116.597 21.136h-1.921V8.921h1.941v4.882h5.568V8.941h2.137v12.136h-2.117v-5.356h-5.569c-.02.569-.039 1.137-.039 1.686v3.729z" fill="#fff"/><path data-name="Path 658" d="M78.797 14.293c1.549 2.255 3.078 4.49 4.705 6.862-.823 0-1.549.039-2.274-.02-.2-.02-.392-.294-.529-.49q-1.706-2.412-3.412-4.882a1.75 1.75 0 00-1.137 1.921c.1 1.118.02 2.274.02 3.451h-2.059V8.98h2.039v5.607c1.686-1.98 3.235-3.8 4.784-5.627h2.431a582.832 582.832 0 00-4.568 5.333z" fill="#fff"/><path data-name="Path 659" d="M53.447 17.861c-.392 1.1-.784 2.2-1.176 3.255h-2.216a2428.92 2428.92 0 004.568-12.273h2.294c1.51 4.019 3.039 8.137 4.588 12.293H59.27c-.294-.843-.627-1.706-.9-2.588a.832.832 0 00-.961-.706c-1.296.058-2.59.019-3.962.019zm2.353-6.96c-.608 1.784-1.137 3.392-1.706 5.058h3.411a737.288 737.288 0 01-1.705-5.058z" fill="#fff"/><path data-name="Path 660" d="M127.499 8.901h6.921v1.725h-4.8v3.175h4.509v1.8h-4.49v3.73c.765.1 1.568.02 2.372.039.784.02 1.549 0 2.392 0v1.725h-6.884c-.02-4.038-.02-8.057-.02-12.194z" fill="#fff"/><path data-name="Path 661" d="M84.993 21.096V8.96h7.019v1.588a12.157 12.157 0 01-2.392.1c-.784.02-1.569 0-2.392 0v3.2h4.49v1.725h-4.49v3.817h4.745v1.725c-2.314-.019-4.608-.019-6.98-.019z" fill="#fff"/><path data-name="Path 662" d="M144.752 19.038v1.765a8.444 8.444 0 01-4.666.471 4.872 4.872 0 01-4.019-4 8.664 8.664 0 01.294-5.274 4.888 4.888 0 013.784-3.137 7.944 7.944 0 015.1.608c-.255.608-.49 1.157-.725 1.686-.706-.2-1.353-.431-2.039-.569a3.388 3.388 0 00-4.294 3.1 9.192 9.192 0 00.078 3.2c.588 2.353 2.412 2.9 4.333 2.608a21.309 21.309 0 002.154-.458z" fill="#fff"/><path data-name="Path 663" d="M111.697 11.27a5.294 5.294 0 00-3.568-.667 3.239 3.239 0 00-2.451 2.157 6.344 6.344 0 000 4.686 3.191 3.191 0 002.98 2.137 7.95 7.95 0 002.784-.431c.177-.039.373-.039.588-.078v1.647a3.127 3.127 0 01-1.706.529 6.545 6.545 0 01-4.8-.706 4.983 4.983 0 01-2.235-3.411 9.721 9.721 0 01-.019-3.98 5.332 5.332 0 015.1-4.451 8.6 8.6 0 013.372.431 7.662 7.662 0 01.824.392c-.34.631-.615 1.18-.869 1.745z" fill="#fff"/><path data-name="Path 664" d="M96.815 10.666h-3.509V8.96h9.254v1.706c-.588 0-1.176.02-1.784.02h-1.823v10.43h-2.137z" fill="#fff"/></svg>