<svg xmlns="http://www.w3.org/2000/svg" width="106.967" height="38.103"><g fill="#fff"><path data-name="Path 627" d="M32.9 5.7l-.855-.588c-.659-.428-1.3-.891-2-1.265a44.055 44.055 0 00-3.083-1.479A17.363 17.363 0 0022.97 1.21c-.731-.125-1.5-.16-2.246-.232a14.448 14.448 0 00-3.279.232 14.58 14.58 0 00-4.758 1.675A16.254 16.254 0 009.784 4.9c-.642.57-1.3 1.176-1.925 1.8a12.23 12.23 0 00-2.5 3.511 15.7 15.7 0 00-1.158 3.636 26.368 26.368 0 00-.334 2.653 16.19 16.19 0 00-.036 2.459 15.5 15.5 0 00.731 4.141 14.549 14.549 0 002.37 4.349 14.018 14.018 0 001.283 1.444 14.212 14.212 0 003.065 2.263 17.587 17.587 0 004.188 1.622c.481.125.962.214 1.444.321a.846.846 0 00.214 0V16.966c0-.2-.053-.25-.25-.25-1.016.018-2.032 0-3.03 0-.178 0-.232-.053-.232-.232V11.9c0-.178.053-.25.232-.25a5.626 5.626 0 003.354-1.206 4.5 4.5 0 001.424-2.014.369.369 0 01.392-.285q2.112.027 4.224 0c.2 0 .25.053.25.25v28.942c0 .356-.267.3-.428.356a6.1 6.1 0 01-1.248.214c-.98.053-1.96.071-2.941.089a15.427 15.427 0 01-1.586-.143c-.8-.107-1.6-.232-2.406-.41a18.238 18.238 0 01-4.741-1.818 19.149 19.149 0 01-4.1-3.048c-.5-.5-.945-1.034-1.408-1.568A16.875 16.875 0 012.459 27.7a21.749 21.749 0 01-1.586-3.979 33.567 33.567 0 01-.517-2.192c-.125-.7-.178-1.408-.267-2.1 0-.036-.053-.089-.089-.125v-1.251a.722.722 0 00.089-.16c.018-.107 0-.232.018-.339.125-.8.232-1.6.374-2.388a19.2 19.2 0 013.208-7.45 16.766 16.766 0 011.925-2.263c.446-.446.927-.838 1.408-1.248A17.727 17.727 0 0114.347.588a18.532 18.532 0 012.976-.5c.053 0 .089-.053.143-.089h3.083a.542.542 0 00.125.089A18.723 18.723 0 0125.5 1.141a20.975 20.975 0 014.12 2.013 28.63 28.63 0 013.137 2.335 2.227 2.227 0 01.143.211z"/><path data-name="Path 628" d="M106.949 26.911c-.071 0-.125.018-.2.018h-7.731V8.483c.035 0 .089-.018.142-.018h7.806v2.78h-5.148v5.044h3.742v2.8h-3.742v5.026h5.15c-.019.942-.019 1.869-.019 2.796z"/><path data-name="Path 632" d="M46.015 38.085a2.268 2.268 0 01-1.194-.7 1.962 1.962 0 01-.517-1.265q-.027-2.459 0-4.919a2.069 2.069 0 014.1-.3 3.75 3.75 0 01.036.446v4.545a2.047 2.047 0 01-1.64 2.121.135.135 0 00-.071.036 4.542 4.542 0 01-.714.036zm1.069-4.438V31.33a.752.752 0 10-1.5 0v4.6a.752.752 0 101.5 0z"/><path data-name="Path 633" d="M106.948 37.996h-3.511c-.2 0-.25-.036-.25-.249v-8.162a1.093 1.093 0 01.018-.232h3.743v1.283h-2.424v2.37h1.729v1.319h-1.729v2.352h2.424z"/><path data-name="Path 634" d="M36.41 38.085a5.921 5.921 0 01-.838-.356 2.258 2.258 0 01-.909-1.515c-.036-.178-.053-.356-.089-.57.428-.036.838-.053 1.23-.089.071.25.107.463.178.677a.876.876 0 00.749.659.858.858 0 00.82-.749 1.7 1.7 0 00-.624-1.461 19.326 19.326 0 01-1.693-1.729 2.442 2.442 0 01-.356-2.477 1.862 1.862 0 012.1-1.194 1.957 1.957 0 011.836 1.818v.16c-.392.071-.784.16-1.158.214-.036 0-.089-.089-.107-.143-.071-.178-.107-.356-.178-.517a.646.646 0 00-.713-.356.632.632 0 00-.517.463 1.527 1.527 0 00.178 1.3 5.137 5.137 0 001.194 1.212 3.772 3.772 0 011.337 2.05 2.177 2.177 0 01-.927 2.352 4.882 4.882 0 01-.713.267c-.266-.016-.536-.016-.8-.016z"/><path data-name="Path 636" d="M96.505 8.483v18.445c-.071 0-.125.018-.2.018h-2.6a.236.236 0 01-.267-.178L89.749 15.38a.365.365 0 00-.089-.16v11.691h-2.8V8.483c.071 0 .125-.018.178-.018H89.8c.143 0 .214.036.249.178 1.176 3.974 2.37 7.966 3.564 11.941a.206.206 0 00.089.125V8.465c.949.018 1.861.018 2.803.018z"/><path data-name="Path 637" d="M34.592 8.486a.772.772 0 00.089-.018c1.515 0 3.03-.018 4.545.018a4.393 4.393 0 014.1 3.814c.018.232.036.481.036.731v9.517a4.392 4.392 0 01-3.279 4.259 4.57 4.57 0 01-1.1.125c-1.408.018-2.816 0-4.224 0a.669.669 0 01-.178-.018c.011-6.134.011-12.264.011-18.428zm2.8 2.851v12.849h1.568a1.572 1.572 0 001.675-1.675v-9.608a1.515 1.515 0 00-1.354-1.533 16.55 16.55 0 00-1.891-.035z"/><path data-name="Path 638" d="M75.564 17.697v-5.079a4.385 4.385 0 013.725-4.313 4.433 4.433 0 014.847 2.78 4.2 4.2 0 01.285 1.55v10.142a4.425 4.425 0 01-8.768.82 4.812 4.812 0 01-.071-.873c-.035-1.676-.018-3.351-.018-5.027zm2.727-.053v4.972a1.882 1.882 0 00.036.446 1.608 1.608 0 003.172-.374V12.636a1.688 1.688 0 00-.232-.873 1.608 1.608 0 00-1.8-.7 1.568 1.568 0 00-1.158 1.533c-.018 1.698-.018 3.373-.018 5.048z"/><path data-name="Path 639" d="M55.367 26.929h-2.941c-.214-1.408-.428-2.816-.659-4.224h-2.923c-.232 1.408-.445 2.816-.677 4.224h-2.9q1.577-9.223 3.154-18.428h3.85q1.55 9.2 3.096 18.428zm-5-14.028h-.053c-.339 2.352-.659 4.7-1 7.057h2.067z"/><path data-name="Path 640" d="M73.639 26.929h-2.941c-.214-1.408-.428-2.816-.659-4.224h-2.923c-.232 1.408-.446 2.8-.677 4.224h-2.9q1.577-9.223 3.137-18.428h3.85q1.571 9.2 3.113 18.428zm-5.026-14.1h-.036l-1.016 7.147h2.073c-.344-2.386-.682-4.775-1.021-7.144z"/><path data-name="Path 641" d="M60.879 26.929h-2.8V11.301h-2.956v-2.8h8.7v2.8h-2.941z"/><path data-name="Path 642" d="M77.003 33.843c.2-1.5.41-2.976.624-4.473h1.376c-.053.41-.125.82-.178 1.23-.2 1.248-.392 2.477-.588 3.725-.178 1.158-.374 2.335-.553 3.493-.018.143-.071.178-.2.178h-.881c-.143 0-.178-.053-.2-.178-.214-1.408-.446-2.8-.659-4.206a.661.661 0 00-.071-.25c-.036.214-.071.428-.107.659-.178 1.23-.356 2.442-.535 3.671-.036.321-.036.321-.339.321h-.766c-.143 0-.2-.036-.214-.178-.267-1.675-.552-3.333-.838-5.008a205.35 205.35 0 00-.552-3.244.733.733 0 01-.018-.214h1.265c.036 0 .089.071.107.125l.481 3.226c.053.374.125.749.2 1.141.2-1.5.41-2.976.606-4.491h1.265c.036 0 .107.089.125.16.143.98.285 1.96.445 2.958l.214 1.39c-.022-.035-.022-.035-.009-.035z"/><path data-name="Path 643" d="M94.651 34.734v3.226h-1.283v-8.608c.054 0 .107-.018.16-.018.713 0 1.408-.018 2.121 0a1.685 1.685 0 011.657 1.069 3.042 3.042 0 01.16.82c.018.5 0 .98 0 1.479a1.93 1.93 0 01-.552 1.354.334.334 0 00-.089.356c.3 1.123.588 2.263.873 3.386.018.053.018.089.036.16-.071 0-.143.018-.2.018-.321 0-.624-.018-.945 0-.214.018-.285-.071-.339-.267-.214-.927-.446-1.871-.677-2.8a.213.213 0 00-.25-.2 4.187 4.187 0 01-.672.025zm0-4.046v2.655c0 .036.089.107.143.107a4.288 4.288 0 00.677 0 .723.723 0 00.713-.82v-1.319a.6.6 0 00-.588-.624c-.303-.016-.606.002-.945.002z"/><path data-name="Path 644" d="M87.897 37.978h-1.372c-.089-.588-.2-1.176-.267-1.747-.018-.178-.071-.25-.267-.232-.321.018-.642 0-.962 0-.125 0-.178.036-.214.178-.071.517-.16 1.016-.25 1.533-.018.089-.036.178-.053.285h-1.356c.071-.446.16-.891.232-1.337.214-1.248.41-2.477.624-3.725.2-1.141.392-2.3.606-3.44 0-.053.089-.107.125-.107h1.693c.498 2.836.979 5.702 1.461 8.592zm-2.335-6.523h-.036c-.16 1.087-.3 2.174-.463 3.261h.962c-.16-1.104-.303-2.174-.463-3.261z"/><path data-name="Path 645" d="M56.994 34.306h-1.729v3.653h-1.283v-8.607h3.689v1.265h-2.406v2.352h1.729z"/><path data-name="Path 646" d="M62.929 30.653V29.37h4.063v1.283h-1.087c-.3 0-.3 0-.3.3v7.022h-1.3V30.9c0-.232-.071-.285-.285-.267-.343.02-.717.02-1.091.02z"/><path data-name="Path 647" d="M33.059 5.827a.245.245 0 00-.071-.053l.018-.018c.036.036.053.053.053.071z"/><path data-name="Path 648" d="M33.059 5.828c.018.018.053.018.071.036l-.018.018a.133.133 0 01-.053-.053z"/><path data-name="Path 649" d="M32.899 5.703l.018.018a.017.017 0 01-.018-.018z"/><path data-name="Path 650" d="M33.238 5.97l-.018-.018a.017.017 0 01.018.018z"/><path data-name="Path 651" d="M33.237 5.97l.018.018-.018-.018z"/></g></svg>